<?xml version="1.0" encoding="UTF-8" standalone="no"?>
<!-- Created with Fritzing (http://www.fritzing.org/) -->

<svg
   xmlns:dc="http://purl.org/dc/elements/1.1/"
   xmlns:cc="http://creativecommons.org/ns#"
   xmlns:rdf="http://www.w3.org/1999/02/22-rdf-syntax-ns#"
   xmlns:svg="http://www.w3.org/2000/svg"
   xmlns="http://www.w3.org/2000/svg"
   xmlns:xlink="http://www.w3.org/1999/xlink"
   xmlns:sodipodi="http://sodipodi.sourceforge.net/DTD/sodipodi-0.dtd"
   xmlns:inkscape="http://www.inkscape.org/namespaces/inkscape"
   width="765"
   x="0in"
   version="1.2"
   y="0in"
   height="990"
   viewBox="0 0 612.00108 792.00045"
   id="svg3712"
   inkscape:version="0.48.0 r9654"
   sodipodi:docname="XbeeArduinoConnectionShieldA_etch.svg">
  <metadata
     id="metadata4130">
    <rdf:RDF>
      <cc:Work
         rdf:about="">
        <dc:format>image/svg+xml</dc:format>
        <dc:type
           rdf:resource="http://purl.org/dc/dcmitype/StillImage" />
      </cc:Work>
    </rdf:RDF>
  </metadata>
  <defs
     id="defs4128" />
  <sodipodi:namedview
     pagecolor="#ffffff"
     bordercolor="#666666"
     borderopacity="1"
     objecttolerance="10"
     gridtolerance="10"
     guidetolerance="10"
     inkscape:pageopacity="0"
     inkscape:pageshadow="2"
     inkscape:window-width="1395"
     inkscape:window-height="951"
     id="namedview4126"
     showgrid="false"
     inkscape:zoom="0.74040404"
     inkscape:cx="382.5"
     inkscape:cy="495"
     inkscape:window-x="0"
     inkscape:window-y="0"
     inkscape:window-maximized="0"
     inkscape:current-layer="svg3712" />
  <g
     id="g4132"
     transform="matrix(0,1,-1,0,201.40611,173.50378)">
    <g
       id="silkscreen"
       style="stroke-width:0">
      <line
         id="line3715"
         x2="131.69099"
         y2="0.288001"
         x1="0.287999"
         y1="0.288001"
         style="stroke:#000000;stroke-width:0.57599902" />
      <line
         id="line3717"
         x2="131.69099"
         y2="151.69099"
         x1="131.69099"
         y1="0.288001"
         style="stroke:#000000;stroke-width:0.57599902" />
      <line
         id="line3719"
         x2="0.287999"
         y2="151.69099"
         x1="131.69099"
         y1="151.69099"
         style="stroke:#000000;stroke-width:0.57599902" />
      <line
         id="line3721"
         x2="0.287999"
         y2="0.288001"
         x1="0.287999"
         y1="151.69099"
         style="stroke:#000000;stroke-width:0.57599902" />
    </g>
    <g
       id="g3723"
       transform="translate(13.32,8.64)">
      <g
         id="groundplane"
         style="stroke-width:0">
        <polygon
           id="polygon3726"
           points="48.96,2.16 48.6,2.16 48.6,2.52 48.24,2.52 48.24,2.88 47.52,2.88 47.52,3.24 46.8,3.24 46.8,3.6 56.16,3.6 56.16,3.24 55.44,3.24 55.44,2.88 54.72,2.88 54.72,2.52 54.36,2.52 54.36,2.16 54,2.16 54,1.8 53.64,1.8 53.64,1.08 53.28,1.08 53.28,0.72 52.92,0.72 52.92,0 50.04,0 50.04,0.72 49.68,0.72 49.68,1.44 49.32,1.44 49.32,1.8 48.96,1.8 "
           style="fill:#000000;stroke:none" />
        <polygon
           id="polygon3728"
           points="14.4,2.88 11.52,2.88 11.52,3.24 10.8,3.24 10.8,3.6 15.12,3.6 15.12,3.24 14.4,3.24 "
           style="fill:#000000;stroke:none" />
        <polygon
           id="polygon3730"
           points="21.6,2.88 18.72,2.88 18.72,3.24 18,3.24 18,3.6 22.32,3.6 22.32,3.24 21.6,3.24 "
           style="fill:#000000;stroke:none" />
        <polygon
           id="polygon3732"
           points="28.8,2.88 25.92,2.88 25.92,3.24 25.2,3.24 25.2,3.6 29.52,3.6 29.52,3.24 28.8,3.24 "
           style="fill:#000000;stroke:none" />
        <polygon
           id="polygon3734"
           points="36,2.88 33.12,2.88 33.12,3.24 32.4,3.24 32.4,3.6 36.72,3.6 36.72,3.24 36,3.24 "
           style="fill:#000000;stroke:none" />
        <polygon
           id="polygon3736"
           points="43.2,2.88 40.32,2.88 40.32,3.24 39.6,3.24 39.6,3.6 43.92,3.6 43.92,3.24 43.2,3.24 "
           style="fill:#000000;stroke:none" />
        <polygon
           id="polygon3738"
           points="62.64,2.88 59.76,2.88 59.76,3.24 59.04,3.24 59.04,3.6 63.36,3.6 63.36,3.24 62.64,3.24 "
           style="fill:#000000;stroke:none" />
        <polygon
           id="polygon3740"
           points="69.84,2.88 66.96,2.88 66.96,3.24 66.24,3.24 66.24,3.6 70.56,3.6 70.56,3.24 69.84,3.24 "
           style="fill:#000000;stroke:none" />
        <polygon
           id="polygon3742"
           points="77.04,2.88 74.16,2.88 74.16,3.24 73.44,3.24 73.44,3.6 77.76,3.6 77.76,3.24 77.04,3.24 "
           style="fill:#000000;stroke:none" />
        <polygon
           id="polygon3744"
           points="84.24,2.88 81.36,2.88 81.36,3.24 80.64,3.24 80.64,3.6 84.96,3.6 84.96,3.24 84.24,3.24 "
           style="fill:#000000;stroke:none" />
        <polygon
           id="polygon3746"
           points="91.44,2.88 88.56,2.88 88.56,3.24 87.84,3.24 87.84,3.6 92.16,3.6 92.16,3.24 91.44,3.24 "
           style="fill:#000000;stroke:none" />
        <polygon
           id="polygon3748"
           points="97.56,3.6 5.4,3.6 5.4,3.96 97.56,3.96 "
           style="fill:#000000;stroke:none" />
        <polygon
           id="polygon3750"
           points="97.56,3.6 5.4,3.6 5.4,3.96 97.56,3.96 "
           style="fill:#000000;stroke:none" />
        <polygon
           id="polygon3752"
           points="97.56,3.6 5.4,3.6 5.4,3.96 97.56,3.96 "
           style="fill:#000000;stroke:none" />
        <polygon
           id="polygon3754"
           points="97.56,3.6 5.4,3.6 5.4,3.96 97.56,3.96 "
           style="fill:#000000;stroke:none" />
        <polygon
           id="polygon3756"
           points="97.56,3.6 5.4,3.6 5.4,3.96 97.56,3.96 "
           style="fill:#000000;stroke:none" />
        <polygon
           id="polygon3758"
           points="97.56,3.6 5.4,3.6 5.4,3.96 97.56,3.96 "
           style="fill:#000000;stroke:none" />
        <polygon
           id="polygon3760"
           points="97.56,3.6 5.4,3.6 5.4,3.96 97.56,3.96 "
           style="fill:#000000;stroke:none" />
        <polygon
           id="polygon3762"
           points="97.56,3.6 5.4,3.6 5.4,3.96 97.56,3.96 "
           style="fill:#000000;stroke:none" />
        <polygon
           id="polygon3764"
           points="97.56,3.6 5.4,3.6 5.4,3.96 97.56,3.96 "
           style="fill:#000000;stroke:none" />
        <polygon
           id="polygon3766"
           points="97.56,3.6 5.4,3.6 5.4,3.96 97.56,3.96 "
           style="fill:#000000;stroke:none" />
        <polygon
           id="polygon3768"
           points="97.56,3.6 5.4,3.6 5.4,3.96 97.56,3.96 "
           style="fill:#000000;stroke:none" />
        <polygon
           id="polygon3770"
           points="5.4,5.4 73.44,5.4 73.44,7.2 97.56,7.2 97.56,3.96 5.4,3.96 "
           style="fill:#000000;stroke:none" />
        <polygon
           id="polygon3772"
           points="4.32,26.28 3.96,26.28 3.96,26.64 0,26.64 0,35.64 30.96,35.64 30.96,35.28 33.48,35.28 33.48,9.72 33.84,9.72 33.84,8.64 34.2,8.64 34.2,8.28 34.56,8.28 34.56,7.92 34.92,7.92 34.92,7.56 35.64,7.56 35.64,7.2 57.6,7.2 57.6,6.84 57.96,6.84 57.96,6.48 58.68,6.48 58.68,6.12 59.04,6.12 59.04,5.76 60.12,5.76 60.12,5.4 5.4,5.4 5.4,24.84 5.04,24.84 5.04,25.56 4.68,25.56 4.68,25.92 4.32,25.92 "
           style="fill:#000000;stroke:none" />
        <g
           id="connector0pad"
           style="stroke-width:0">
          <circle
             d="m 13.3626,10.917 c 0,1.491169 -1.208832,2.7 -2.7,2.7 -1.4911693,0 -2.7000005,-1.208831 -2.7000005,-2.7 0,-1.491169 1.2088312,-2.7000002 2.7000005,-2.7000002 1.491168,0 2.7,1.2088312 2.7,2.7000002 z"
             id="circle3775"
             r="2.7"
             cy="10.917"
             cx="10.6626"
             sodipodi:cx="10.6626"
             sodipodi:cy="10.917"
             sodipodi:rx="2.7"
             sodipodi:ry="2.7"
             style="fill:#000000;stroke:none" />
        </g>
      </g>
    </g>
    <g
       id="g3777"
       style="stroke-width:0">
      <polygon
         id="polygon3779"
         points="123.84,3.24 124.56,3.24 124.56,3.6 124.92,3.6 124.92,3.96 125.28,3.96 125.28,4.68 125.64,4.68 125.64,5.04 126,5.04 126,5.76 126.36,5.76 126.36,8.64 126,8.64 126,9.36 125.64,9.36 125.64,10.08 125.28,10.08 125.28,10.44 124.92,10.44 124.92,10.8 124.56,10.8 124.56,28.44 124.2,28.44 124.2,29.16 123.84,29.16 123.84,29.52 123.48,29.52 123.48,29.88 123.12,29.88 123.12,30.24 86.76,30.24 86.76,32.04 131.76,32.04 131.76,0 0,0 0,2.16 122.04,2.16 122.04,2.52 123.12,2.52 123.12,2.88 123.84,2.88 "
         style="fill:#000000;stroke:none" />
      <polygon
         id="polygon3781"
         points="7.92,52.56 7.2,52.56 7.2,52.2 6.84,52.2 6.84,51.84 6.48,51.84 6.48,51.12 6.12,51.12 6.12,50.76 5.76,50.76 5.76,49.32 5.4,49.32 5.4,48.6 5.76,48.6 5.76,47.16 6.12,47.16 6.12,46.44 6.48,46.44 6.48,46.08 6.84,46.08 6.84,45.72 7.2,45.72 7.2,30.96 7.56,30.96 7.56,30.24 7.92,30.24 7.92,29.88 8.28,29.88 8.28,29.52 9,29.52 9,29.16 12.24,29.16 12.24,12.24 6.84,12.24 6.84,11.88 6.12,11.88 6.12,11.52 5.76,11.52 5.76,11.16 5.04,11.16 5.04,10.8 4.68,10.8 4.68,10.44 4.32,10.44 4.32,9.72 3.96,9.72 3.96,9.36 3.6,9.36 3.6,7.92 3.24,7.92 3.24,6.48 3.6,6.48 3.6,5.4 3.96,5.4 3.96,4.68 4.32,4.68 4.32,4.32 4.68,4.32 4.68,3.96 5.04,3.96 5.04,3.6 5.4,3.6 5.4,3.24 5.76,3.24 5.76,2.88 6.48,2.88 6.48,2.52 7.56,2.52 7.56,2.16 0,2.16 0,53.64 9.36,53.64 9.36,53.28 8.28,53.28 8.28,52.92 7.92,52.92 "
         style="fill:#000000;stroke:none" />
      <polygon
         id="polygon3783"
         points="14.76,2.16 9,2.16 9,2.52 10.08,2.52 10.08,2.88 13.68,2.88 13.68,2.52 14.76,2.52 "
         style="fill:#000000;stroke:none" />
      <polygon
         id="polygon3785"
         points="21.96,2.16 16.2,2.16 16.2,2.52 17.28,2.52 17.28,2.88 20.88,2.88 20.88,2.52 21.96,2.52 "
         style="fill:#000000;stroke:none" />
      <polygon
         id="polygon3787"
         points="29.16,2.16 23.4,2.16 23.4,2.52 24.48,2.52 24.48,2.88 28.08,2.88 28.08,2.52 29.16,2.52 "
         style="fill:#000000;stroke:none" />
      <polygon
         id="polygon3789"
         points="36.36,2.16 30.6,2.16 30.6,2.52 31.68,2.52 31.68,2.88 35.28,2.88 35.28,2.52 36.36,2.52 "
         style="fill:#000000;stroke:none" />
      <polygon
         id="polygon3791"
         points="43.56,2.16 37.8,2.16 37.8,2.52 38.88,2.52 38.88,2.88 42.48,2.88 42.48,2.52 43.56,2.52 "
         style="fill:#000000;stroke:none" />
      <polygon
         id="polygon3793"
         points="50.76,2.16 45,2.16 45,2.52 46.08,2.52 46.08,2.88 49.68,2.88 49.68,2.52 50.76,2.52 "
         style="fill:#000000;stroke:none" />
      <polygon
         id="polygon3795"
         points="57.96,2.16 52.2,2.16 52.2,2.52 53.28,2.52 53.28,2.88 56.88,2.88 56.88,2.52 57.96,2.52 "
         style="fill:#000000;stroke:none" />
      <polygon
         id="polygon3797"
         points="61.92,3.6 62.28,3.6 62.28,3.96 62.64,3.96 62.64,4.68 63,4.68 63,5.04 63.36,5.04 63.36,5.76 66.24,5.76 66.24,5.4 66.6,5.4 66.6,4.68 66.96,4.68 66.96,4.32 67.32,4.32 67.32,3.96 67.68,3.96 67.68,3.6 68.04,3.6 68.04,3.24 68.4,3.24 68.4,2.88 69.12,2.88 69.12,2.52 70.2,2.52 70.2,2.16 59.4,2.16 59.4,2.52 60.48,2.52 60.48,2.88 61.2,2.88 61.2,3.24 61.92,3.24 "
         style="fill:#000000;stroke:none" />
      <polygon
         id="polygon3799"
         points="77.4,2.16 71.64,2.16 71.64,2.52 72.72,2.52 72.72,2.88 76.32,2.88 76.32,2.52 77.4,2.52 "
         style="fill:#000000;stroke:none" />
      <polygon
         id="polygon3801"
         points="84.6,2.16 78.84,2.16 78.84,2.52 79.92,2.52 79.92,2.88 83.52,2.88 83.52,2.52 84.6,2.52 "
         style="fill:#000000;stroke:none" />
      <polygon
         id="polygon3803"
         points="91.8,2.16 86.04,2.16 86.04,2.52 87.12,2.52 87.12,2.88 90.72,2.88 90.72,2.52 91.8,2.52 "
         style="fill:#000000;stroke:none" />
      <polygon
         id="polygon3805"
         points="99,2.16 93.24,2.16 93.24,2.52 94.32,2.52 94.32,2.88 97.92,2.88 97.92,2.52 99,2.52 "
         style="fill:#000000;stroke:none" />
      <polygon
         id="polygon3807"
         points="106.2,2.16 100.44,2.16 100.44,2.52 101.52,2.52 101.52,2.88 105.12,2.88 105.12,2.52 106.2,2.52 "
         style="fill:#000000;stroke:none" />
      <polygon
         id="polygon3809"
         points="113.4,2.16 107.64,2.16 107.64,2.52 108.72,2.52 108.72,2.88 112.32,2.88 112.32,2.52 113.4,2.52 "
         style="fill:#000000;stroke:none" />
      <polygon
         id="polygon3811"
         points="120.6,2.16 114.84,2.16 114.84,2.52 115.92,2.52 115.92,2.88 119.52,2.88 119.52,2.52 120.6,2.52 "
         style="fill:#000000;stroke:none" />
      <polygon
         id="polygon3813"
         points="71.64,30.96 71.28,30.96 71.28,30.6 70.92,30.6 70.92,30.24 59.04,30.24 59.04,32.04 73.08,32.04 73.08,31.68 72.36,31.68 72.36,31.32 71.64,31.32 "
         style="fill:#000000;stroke:none" />
      <polygon
         id="polygon3815"
         points="131.76,32.04 59.04,32.04 59.04,32.4 131.76,32.4 "
         style="fill:#000000;stroke:none" />
      <polygon
         id="polygon3817"
         points="131.76,32.04 59.04,32.04 59.04,32.4 131.76,32.4 "
         style="fill:#000000;stroke:none" />
      <polygon
         id="polygon3819"
         points="75.24,46.08 75.96,46.08 75.96,46.44 76.32,46.44 76.32,46.8 76.68,46.8 76.68,47.52 77.04,47.52 77.04,134.28 76.68,134.28 76.68,135 76.32,135 76.32,135.36 75.96,135.36 75.96,135.72 75.6,135.72 75.6,136.08 45.36,136.08 45.36,138.96 122.04,138.96 122.04,139.32 123.12,139.32 123.12,139.68 123.84,139.68 123.84,140.04 124.56,140.04 124.56,140.4 124.92,140.4 124.92,140.76 125.28,140.76 125.28,141.48 125.64,141.48 125.64,141.84 126,141.84 126,142.56 126.36,142.56 126.36,145.44 126,145.44 126,146.16 125.64,146.16 125.64,146.88 125.28,146.88 125.28,147.24 124.92,147.24 124.92,147.6 124.56,147.6 124.56,147.96 124.2,147.96 124.2,148.32 123.48,148.32 123.48,148.68 122.76,148.68 122.76,149.04 131.76,149.04 131.76,32.4 59.04,32.4 59.04,43.92 65.52,43.92 65.52,44.28 66.24,44.28 66.24,45.72 75.24,45.72 "
         style="fill:#000000;stroke:none" />
      <polygon
         id="polygon3821"
         points="70.56,51.84 66.24,51.84 66.24,53.64 70.56,53.64 "
         style="fill:#000000;stroke:none" />
      <polygon
         id="polygon3823"
         points="15.12,53.28 11.16,53.28 11.16,53.64 15.12,53.64 "
         style="fill:#000000;stroke:none" />
      <polygon
         id="polygon3825"
         points="20.52,53.28 16.92,53.28 16.92,53.64 20.52,53.64 "
         style="fill:#000000;stroke:none" />
      <polygon
         id="polygon3827"
         points="26.28,53.28 22.68,53.28 22.68,53.64 26.28,53.64 "
         style="fill:#000000;stroke:none" />
      <polygon
         id="polygon3829"
         points="32.04,53.28 28.44,53.28 28.44,53.64 32.04,53.64 "
         style="fill:#000000;stroke:none" />
      <polygon
         id="polygon3831"
         points="37.8,53.28 34.2,53.28 34.2,53.64 37.8,53.64 "
         style="fill:#000000;stroke:none" />
      <polygon
         id="polygon3833"
         points="43.56,53.28 39.6,53.28 39.6,53.64 43.56,53.64 "
         style="fill:#000000;stroke:none" />
      <polygon
         id="polygon3835"
         points="48.96,53.28 45.36,53.28 45.36,53.64 48.96,53.64 "
         style="fill:#000000;stroke:none" />
      <polygon
         id="polygon3837"
         points="54.72,53.28 51.12,53.28 51.12,53.64 54.72,53.64 "
         style="fill:#000000;stroke:none" />
      <polygon
         id="polygon3839"
         points="70.56,53.64 0,53.64 0,54 70.56,54 "
         style="fill:#000000;stroke:none" />
      <polygon
         id="polygon3841"
         points="70.56,53.64 0,53.64 0,54 70.56,54 "
         style="fill:#000000;stroke:none" />
      <polygon
         id="polygon3843"
         points="70.56,53.64 0,53.64 0,54 70.56,54 "
         style="fill:#000000;stroke:none" />
      <polygon
         id="polygon3845"
         points="70.56,53.64 0,53.64 0,54 70.56,54 "
         style="fill:#000000;stroke:none" />
      <polygon
         id="polygon3847"
         points="70.56,53.64 0,53.64 0,54 70.56,54 "
         style="fill:#000000;stroke:none" />
      <polygon
         id="polygon3849"
         points="70.56,53.64 0,53.64 0,54 70.56,54 "
         style="fill:#000000;stroke:none" />
      <polygon
         id="polygon3851"
         points="70.56,53.64 0,53.64 0,54 70.56,54 "
         style="fill:#000000;stroke:none" />
      <polygon
         id="polygon3853"
         points="70.56,53.64 0,53.64 0,54 70.56,54 "
         style="fill:#000000;stroke:none" />
      <polygon
         id="polygon3855"
         points="70.56,53.64 0,53.64 0,54 70.56,54 "
         style="fill:#000000;stroke:none" />
      <polygon
         id="polygon3857"
         points="70.56,53.64 0,53.64 0,54 70.56,54 "
         style="fill:#000000;stroke:none" />
      <polygon
         id="polygon3859"
         points="63.72,107.64 64.44,107.64 64.44,108 64.8,108 64.8,108.36 65.16,108.36 65.16,108.72 65.52,108.72 65.52,109.44 65.88,109.44 65.88,110.16 66.24,110.16 66.24,112.68 65.88,112.68 65.88,113.4 65.52,113.4 65.52,114.12 65.16,114.12 65.16,114.48 64.8,114.48 64.8,114.84 64.44,114.84 64.44,115.2 64.08,115.2 64.08,115.56 63.36,115.56 63.36,115.92 62.64,115.92 62.64,116.28 70.56,116.28 70.56,54 0,54 0,106.56 61.56,106.56 61.56,106.92 63.36,106.92 63.36,107.28 63.72,107.28 "
         style="fill:#000000;stroke:none" />
      <polygon
         id="polygon3861"
         points="7.92,115.2 7.2,115.2 7.2,114.84 6.84,114.84 6.84,114.48 6.48,114.48 6.48,113.76 6.12,113.76 6.12,113.4 5.76,113.4 5.76,111.96 5.4,111.96 5.4,111.24 5.76,111.24 5.76,109.8 6.12,109.8 6.12,109.08 6.48,109.08 6.48,108.72 6.84,108.72 6.84,108.36 7.2,108.36 7.2,108 7.56,108 7.56,107.64 7.92,107.64 7.92,107.28 8.64,107.28 8.64,106.92 10.08,106.92 10.08,106.56 0,106.56 0,116.28 9.36,116.28 9.36,115.92 8.28,115.92 8.28,115.56 7.92,115.56 "
         style="fill:#000000;stroke:none" />
      <polygon
         id="polygon3863"
         points="15.84,106.56 10.44,106.56 10.44,106.92 15.84,106.92 "
         style="fill:#000000;stroke:none" />
      <polygon
         id="polygon3865"
         points="21.6,106.56 16.2,106.56 16.2,106.92 21.6,106.92 "
         style="fill:#000000;stroke:none" />
      <polygon
         id="polygon3867"
         points="32.76,106.56 21.96,106.56 21.96,106.92 32.76,106.92 "
         style="fill:#000000;stroke:none" />
      <polygon
         id="polygon3869"
         points="38.52,106.56 33.12,106.56 33.12,106.92 38.52,106.92 "
         style="fill:#000000;stroke:none" />
      <polygon
         id="polygon3871"
         points="44.28,106.56 38.88,106.56 38.88,106.92 44.28,106.92 "
         style="fill:#000000;stroke:none" />
      <polygon
         id="polygon3873"
         points="50.04,106.56 44.64,106.56 44.64,106.92 50.04,106.92 "
         style="fill:#000000;stroke:none" />
      <polygon
         id="polygon3875"
         points="61.2,106.56 50.4,106.56 50.4,106.92 61.2,106.92 "
         style="fill:#000000;stroke:none" />
      <polygon
         id="polygon3877"
         points="15.12,115.92 11.16,115.92 11.16,116.28 15.12,116.28 "
         style="fill:#000000;stroke:none" />
      <polygon
         id="polygon3879"
         points="20.52,115.92 16.92,115.92 16.92,116.28 20.52,116.28 "
         style="fill:#000000;stroke:none" />
      <polygon
         id="polygon3881"
         points="26.28,115.92 22.68,115.92 22.68,116.28 26.28,116.28 "
         style="fill:#000000;stroke:none" />
      <polygon
         id="polygon3883"
         points="32.04,115.92 28.44,115.92 28.44,116.28 32.04,116.28 "
         style="fill:#000000;stroke:none" />
      <polygon
         id="polygon3885"
         points="37.8,115.92 34.2,115.92 34.2,116.28 37.8,116.28 "
         style="fill:#000000;stroke:none" />
      <polygon
         id="polygon3887"
         points="43.56,115.92 39.6,115.92 39.6,116.28 43.56,116.28 "
         style="fill:#000000;stroke:none" />
      <polygon
         id="polygon3889"
         points="48.96,115.92 45.36,115.92 45.36,116.28 48.96,116.28 "
         style="fill:#000000;stroke:none" />
      <polygon
         id="polygon3891"
         points="54.72,115.92 51.12,115.92 51.12,116.28 54.72,116.28 "
         style="fill:#000000;stroke:none" />
      <polygon
         id="polygon3893"
         points="60.48,115.92 56.88,115.92 56.88,116.28 60.48,116.28 "
         style="fill:#000000;stroke:none" />
      <polygon
         id="polygon3895"
         points="70.56,116.28 0,116.28 0,116.64 70.56,116.64 "
         style="fill:#000000;stroke:none" />
      <polygon
         id="polygon3897"
         points="70.56,116.28 0,116.28 0,116.64 70.56,116.64 "
         style="fill:#000000;stroke:none" />
      <polygon
         id="polygon3899"
         points="70.56,116.28 0,116.28 0,116.64 70.56,116.64 "
         style="fill:#000000;stroke:none" />
      <polygon
         id="polygon3901"
         points="70.56,116.28 0,116.28 0,116.64 70.56,116.64 "
         style="fill:#000000;stroke:none" />
      <polygon
         id="polygon3903"
         points="70.56,116.28 0,116.28 0,116.64 70.56,116.64 "
         style="fill:#000000;stroke:none" />
      <polygon
         id="polygon3905"
         points="70.56,116.28 0,116.28 0,116.64 70.56,116.64 "
         style="fill:#000000;stroke:none" />
      <polygon
         id="polygon3907"
         points="70.56,116.28 0,116.28 0,116.64 70.56,116.64 "
         style="fill:#000000;stroke:none" />
      <polygon
         id="polygon3909"
         points="70.56,116.28 0,116.28 0,116.64 70.56,116.64 "
         style="fill:#000000;stroke:none" />
      <polygon
         id="polygon3911"
         points="70.56,116.28 0,116.28 0,116.64 70.56,116.64 "
         style="fill:#000000;stroke:none" />
      <polygon
         id="polygon3913"
         points="70.56,116.28 0,116.28 0,116.64 70.56,116.64 "
         style="fill:#000000;stroke:none" />
      <polygon
         id="polygon3915"
         points="70.56,116.28 0,116.28 0,116.64 70.56,116.64 "
         style="fill:#000000;stroke:none" />
      <polygon
         id="polygon3917"
         points="39.24,131.4 39.6,131.4 39.6,130.68 39.96,130.68 39.96,130.32 40.68,130.32 40.68,129.96 70.56,129.96 70.56,116.64 0,116.64 0,138.96 35.64,138.96 35.64,139.32 38.88,139.32 38.88,132.12 39.24,132.12 "
         style="fill:#000000;stroke:none" />
      <polygon
         id="polygon3919"
         points="32.04,147.96 31.68,147.96 31.68,147.6 31.32,147.6 31.32,147.24 30.96,147.24 30.96,146.52 30.6,146.52 30.6,146.16 30.24,146.16 30.24,145.08 29.88,145.08 29.88,143.28 30.24,143.28 30.24,142.2 30.6,142.2 30.6,141.48 30.96,141.48 30.96,141.12 31.32,141.12 31.32,140.76 31.68,140.76 31.68,140.4 32.04,140.4 32.04,140.04 32.4,140.04 32.4,139.68 33.12,139.68 33.12,139.32 34.2,139.32 34.2,138.96 0,138.96 0,149.04 33.48,149.04 33.48,148.68 32.76,148.68 32.76,148.32 32.04,148.32 "
         style="fill:#000000;stroke:none" />
      <polygon
         id="polygon3921"
         points="48.6,138.96 45.36,138.96 45.36,139.32 48.6,139.32 "
         style="fill:#000000;stroke:none" />
      <polygon
         id="polygon3923"
         points="55.8,138.96 50.04,138.96 50.04,139.32 51.12,139.32 51.12,139.68 54.72,139.68 54.72,139.32 55.8,139.32 "
         style="fill:#000000;stroke:none" />
      <polygon
         id="polygon3925"
         points="63,138.96 57.24,138.96 57.24,139.32 58.32,139.32 58.32,139.68 61.92,139.68 61.92,139.32 63,139.32 "
         style="fill:#000000;stroke:none" />
      <polygon
         id="polygon3927"
         points="70.2,138.96 64.44,138.96 64.44,139.32 65.52,139.32 65.52,139.68 69.12,139.68 69.12,139.32 70.2,139.32 "
         style="fill:#000000;stroke:none" />
      <polygon
         id="polygon3929"
         points="74.16,140.4 74.52,140.4 74.52,140.76 74.88,140.76 74.88,141.48 75.24,141.48 75.24,141.84 75.6,141.84 75.6,142.56 75.96,142.56 75.96,145.44 75.6,145.44 75.6,146.16 75.24,146.16 75.24,146.88 74.88,146.88 74.88,147.24 74.52,147.24 74.52,147.6 74.16,147.6 74.16,147.96 73.8,147.96 73.8,148.32 73.08,148.32 73.08,148.68 72.36,148.68 72.36,149.04 83.88,149.04 83.88,148.68 83.16,148.68 83.16,148.32 82.44,148.32 82.44,147.96 82.08,147.96 82.08,147.6 81.72,147.6 81.72,147.24 81.36,147.24 81.36,146.52 81,146.52 81,146.16 80.64,146.16 80.64,145.08 80.28,145.08 80.28,143.28 80.64,143.28 80.64,142.2 81,142.2 81,141.48 81.36,141.48 81.36,141.12 81.72,141.12 81.72,140.76 82.08,140.76 82.08,140.4 82.44,140.4 82.44,140.04 82.8,140.04 82.8,139.68 83.52,139.68 83.52,139.32 84.6,139.32 84.6,138.96 71.64,138.96 71.64,139.32 72.72,139.32 72.72,139.68 73.44,139.68 73.44,140.04 74.16,140.04 "
         style="fill:#000000;stroke:none" />
      <polygon
         id="polygon3931"
         points="91.8,138.96 86.04,138.96 86.04,139.32 87.12,139.32 87.12,139.68 90.72,139.68 90.72,139.32 91.8,139.32 "
         style="fill:#000000;stroke:none" />
      <polygon
         id="polygon3933"
         points="99,138.96 93.24,138.96 93.24,139.32 94.32,139.32 94.32,139.68 97.92,139.68 97.92,139.32 99,139.32 "
         style="fill:#000000;stroke:none" />
      <polygon
         id="polygon3935"
         points="106.2,138.96 100.44,138.96 100.44,139.32 101.52,139.32 101.52,139.68 105.12,139.68 105.12,139.32 106.2,139.32 "
         style="fill:#000000;stroke:none" />
      <polygon
         id="polygon3937"
         points="113.4,138.96 107.64,138.96 107.64,139.32 108.72,139.32 108.72,139.68 112.32,139.68 112.32,139.32 113.4,139.32 "
         style="fill:#000000;stroke:none" />
      <polygon
         id="polygon3939"
         points="120.6,138.96 114.84,138.96 114.84,139.32 115.92,139.32 115.92,139.68 119.52,139.68 119.52,139.32 120.6,139.32 "
         style="fill:#000000;stroke:none" />
      <polygon
         id="polygon3941"
         points="39.96,148.32 37.08,148.32 37.08,148.68 36.36,148.68 36.36,149.04 40.68,149.04 40.68,148.68 39.96,148.68 "
         style="fill:#000000;stroke:none" />
      <polygon
         id="polygon3943"
         points="47.16,148.32 44.28,148.32 44.28,148.68 43.56,148.68 43.56,149.04 47.88,149.04 47.88,148.68 47.16,148.68 "
         style="fill:#000000;stroke:none" />
      <polygon
         id="polygon3945"
         points="54.36,148.32 51.48,148.32 51.48,148.68 50.76,148.68 50.76,149.04 55.08,149.04 55.08,148.68 54.36,148.68 "
         style="fill:#000000;stroke:none" />
      <polygon
         id="polygon3947"
         points="61.56,148.32 58.68,148.32 58.68,148.68 57.96,148.68 57.96,149.04 62.28,149.04 62.28,148.68 61.56,148.68 "
         style="fill:#000000;stroke:none" />
      <polygon
         id="polygon3949"
         points="68.76,148.32 65.88,148.32 65.88,148.68 65.16,148.68 65.16,149.04 69.48,149.04 69.48,148.68 68.76,148.68 "
         style="fill:#000000;stroke:none" />
      <polygon
         id="polygon3951"
         points="90.36,148.32 87.48,148.32 87.48,148.68 86.76,148.68 86.76,149.04 91.08,149.04 91.08,148.68 90.36,148.68 "
         style="fill:#000000;stroke:none" />
      <polygon
         id="polygon3953"
         points="97.56,148.32 94.68,148.32 94.68,148.68 93.96,148.68 93.96,149.04 98.28,149.04 98.28,148.68 97.56,148.68 "
         style="fill:#000000;stroke:none" />
      <polygon
         id="polygon3955"
         points="104.76,148.32 101.88,148.32 101.88,148.68 101.16,148.68 101.16,149.04 105.48,149.04 105.48,148.68 104.76,148.68 "
         style="fill:#000000;stroke:none" />
      <polygon
         id="polygon3957"
         points="111.96,148.32 109.08,148.32 109.08,148.68 108.36,148.68 108.36,149.04 112.68,149.04 112.68,148.68 111.96,148.68 "
         style="fill:#000000;stroke:none" />
      <polygon
         id="polygon3959"
         points="119.16,148.32 116.28,148.32 116.28,148.68 115.56,148.68 115.56,149.04 119.88,149.04 119.88,148.68 119.16,148.68 "
         style="fill:#000000;stroke:none" />
      <polygon
         id="polygon3961"
         points="131.76,149.04 0,149.04 0,149.4 131.76,149.4 "
         style="fill:#000000;stroke:none" />
      <polygon
         id="polygon3963"
         points="131.76,149.04 0,149.04 0,149.4 131.76,149.4 "
         style="fill:#000000;stroke:none" />
      <polygon
         id="polygon3965"
         points="131.76,149.04 0,149.04 0,149.4 131.76,149.4 "
         style="fill:#000000;stroke:none" />
      <polygon
         id="polygon3967"
         points="131.76,149.04 0,149.04 0,149.4 131.76,149.4 "
         style="fill:#000000;stroke:none" />
      <polygon
         id="polygon3969"
         points="131.76,149.04 0,149.04 0,149.4 131.76,149.4 "
         style="fill:#000000;stroke:none" />
      <polygon
         id="polygon3971"
         points="131.76,149.04 0,149.04 0,149.4 131.76,149.4 "
         style="fill:#000000;stroke:none" />
      <polygon
         id="polygon3973"
         points="131.76,149.04 0,149.04 0,149.4 131.76,149.4 "
         style="fill:#000000;stroke:none" />
      <polygon
         id="polygon3975"
         points="131.76,149.04 0,149.04 0,149.4 131.76,149.4 "
         style="fill:#000000;stroke:none" />
      <polygon
         id="polygon3977"
         points="131.76,149.04 0,149.04 0,149.4 131.76,149.4 "
         style="fill:#000000;stroke:none" />
      <polygon
         id="polygon3979"
         points="131.76,149.04 0,149.04 0,149.4 131.76,149.4 "
         style="fill:#000000;stroke:none" />
      <polygon
         id="polygon3981"
         points="131.76,149.04 0,149.04 0,149.4 131.76,149.4 "
         style="fill:#000000;stroke:none" />
      <polygon
         id="polygon3983"
         points="131.76,149.04 0,149.04 0,149.4 131.76,149.4 "
         style="fill:#000000;stroke:none" />
      <polygon
         id="polygon3985"
         points="131.76,149.04 0,149.04 0,149.4 131.76,149.4 "
         style="fill:#000000;stroke:none" />
      <polygon
         id="polygon3987"
         points="131.76,149.4 0,149.4 0,151.92 131.76,151.92 "
         style="fill:#000000;stroke:none" />
      <g
         id="g3989"
         style="stroke-width:0">
        <circle
           d="m 7.1874001,14.967 c 0,1.491169 -1.2088312,2.7 -2.7,2.7 -1.4911689,0 -2.7000001,-1.208831 -2.7000001,-2.7 0,-1.491169 1.2088312,-2.7 2.7000001,-2.7 1.4911688,0 2.7,1.208831 2.7,2.7 z"
           id="circle3991"
           r="2.7"
           cy="14.967"
           cx="4.4874001"
           sodipodi:cx="4.4874001"
           sodipodi:cy="14.967"
           sodipodi:rx="2.7"
           sodipodi:ry="2.7"
           style="fill:#000000;stroke:none" />
      </g>
    </g>
    <g
       id="g3993"
       transform="translate(5.86664,4.8)">
      <g
         id="copper0"
         style="stroke-width:0">
        <circle
           d="m 4.464,2.484 c 0,1.0935238 -0.8864762,1.98 -1.98,1.98 -1.0935238,0 -1.98000005,-0.8864762 -1.98000005,-1.98 0,-1.0935238 0.88647625,-1.98000005 1.98000005,-1.98000005 1.0935238,0 1.98,0.88647625 1.98,1.98000005 z"
           r="1.98"
           id="connector0pin"
           cy="2.484"
           cx="2.484"
           sodipodi:cx="2.484"
           sodipodi:cy="2.484"
           sodipodi:rx="1.98"
           sodipodi:ry="1.98"
           style="fill:none;stroke:#000000;stroke-width:1.44000006" />
        <circle
           d="m 11.664,2.484 c 0,1.0935238 -0.886476,1.98 -1.98,1.98 -1.0935238,0 -1.98,-0.8864762 -1.98,-1.98 0,-1.0935238 0.8864762,-1.98000005 1.98,-1.98000005 1.093524,0 1.98,0.88647625 1.98,1.98000005 z"
           r="1.98"
           id="connector1pin"
           cy="2.484"
           cx="9.684"
           sodipodi:cx="9.684"
           sodipodi:cy="2.484"
           sodipodi:rx="1.98"
           sodipodi:ry="1.98"
           style="fill:none;stroke:#000000;stroke-width:1.44000006" />
        <circle
           d="m 18.864001,2.484 c 0,1.0935238 -0.886476,1.98 -1.98,1.98 -1.093524,0 -1.98,-0.8864762 -1.98,-1.98 0,-1.0935238 0.886476,-1.98000005 1.98,-1.98000005 1.093524,0 1.98,0.88647625 1.98,1.98000005 z"
           r="1.98"
           id="connector2pin"
           cy="2.484"
           cx="16.884001"
           sodipodi:cx="16.884001"
           sodipodi:cy="2.484"
           sodipodi:rx="1.98"
           sodipodi:ry="1.98"
           style="fill:none;stroke:#000000;stroke-width:1.44000006" />
        <circle
           d="m 26.064,2.484 c 0,1.0935238 -0.886477,1.98 -1.98,1.98 -1.093524,0 -1.98,-0.8864762 -1.98,-1.98 0,-1.0935238 0.886476,-1.98000005 1.98,-1.98000005 1.093523,0 1.98,0.88647625 1.98,1.98000005 z"
           r="1.98"
           id="connector3pin"
           cy="2.484"
           cx="24.084"
           sodipodi:cx="24.084"
           sodipodi:cy="2.484"
           sodipodi:rx="1.98"
           sodipodi:ry="1.98"
           style="fill:none;stroke:#000000;stroke-width:1.44000006" />
        <circle
           d="m 33.264,2.484 c 0,1.0935238 -0.886476,1.98 -1.98,1.98 -1.093523,0 -1.98,-0.8864762 -1.98,-1.98 0,-1.0935238 0.886477,-1.98000005 1.98,-1.98000005 1.093524,0 1.98,0.88647625 1.98,1.98000005 z"
           r="1.98"
           id="connector4pin"
           cy="2.484"
           cx="31.284"
           sodipodi:cx="31.284"
           sodipodi:cy="2.484"
           sodipodi:rx="1.98"
           sodipodi:ry="1.98"
           style="fill:none;stroke:#000000;stroke-width:1.44000006" />
        <circle
           d="m 40.464001,2.484 c 0,1.0935238 -0.886476,1.98 -1.98,1.98 -1.093524,0 -1.98,-0.8864762 -1.98,-1.98 0,-1.0935238 0.886476,-1.98000005 1.98,-1.98000005 1.093524,0 1.98,0.88647625 1.98,1.98000005 z"
           r="1.98"
           id="connector5pin"
           cy="2.484"
           cx="38.484001"
           sodipodi:cx="38.484001"
           sodipodi:cy="2.484"
           sodipodi:rx="1.98"
           sodipodi:ry="1.98"
           style="fill:none;stroke:#000000;stroke-width:1.44000006" />
        <circle
           d="m 47.663998,2.484 c 0,1.0935238 -0.886476,1.98 -1.98,1.98 -1.093524,0 -1.98,-0.8864762 -1.98,-1.98 0,-1.0935238 0.886476,-1.98000005 1.98,-1.98000005 1.093524,0 1.98,0.88647625 1.98,1.98000005 z"
           r="1.98"
           id="connector6pin"
           cy="2.484"
           cx="45.683998"
           sodipodi:cx="45.683998"
           sodipodi:cy="2.484"
           sodipodi:rx="1.98"
           sodipodi:ry="1.98"
           style="fill:none;stroke:#000000;stroke-width:1.44000006" />
        <circle
           d="m 54.863999,2.484 c 0,1.0935238 -0.886476,1.98 -1.98,1.98 -1.093524,0 -1.98,-0.8864762 -1.98,-1.98 0,-1.0935238 0.886476,-1.98000005 1.98,-1.98000005 1.093524,0 1.98,0.88647625 1.98,1.98000005 z"
           r="1.98"
           id="connector7pin"
           cy="2.484"
           cx="52.883999"
           sodipodi:cx="52.883999"
           sodipodi:cy="2.484"
           sodipodi:rx="1.98"
           sodipodi:ry="1.98"
           style="fill:none;stroke:#000000;stroke-width:1.44000006" />
        <circle
           d="m 67.104001,2.484 c 0,1.0935238 -0.886477,1.98 -1.98,1.98 -1.093524,0 -1.98,-0.8864762 -1.98,-1.98 0,-1.0935238 0.886476,-1.98000005 1.98,-1.98000005 1.093523,0 1.98,0.88647625 1.98,1.98000005 z"
           r="1.98"
           id="connector8pin"
           cy="2.484"
           cx="65.124001"
           sodipodi:cx="65.124001"
           sodipodi:cy="2.484"
           sodipodi:rx="1.98"
           sodipodi:ry="1.98"
           style="fill:none;stroke:#000000;stroke-width:1.44000006" />
        <circle
           d="m 74.303998,2.484 c 0,1.0935238 -0.886477,1.98 -1.980001,1.98 -1.093523,0 -1.98,-0.8864762 -1.98,-1.98 0,-1.0935238 0.886477,-1.98000005 1.98,-1.98000005 1.093524,0 1.980001,0.88647625 1.980001,1.98000005 z"
           r="1.98"
           id="connector9pin"
           cy="2.484"
           cx="72.323997"
           sodipodi:cx="72.323997"
           sodipodi:cy="2.484"
           sodipodi:rx="1.98"
           sodipodi:ry="1.98"
           style="fill:none;stroke:#000000;stroke-width:1.44000006" />
        <circle
           d="m 81.504002,2.484 c 0,1.0935238 -0.886476,1.98 -1.98,1.98 -1.093524,0 -1.98,-0.8864762 -1.98,-1.98 0,-1.0935238 0.886476,-1.98000005 1.98,-1.98000005 1.093524,0 1.98,0.88647625 1.98,1.98000005 z"
           r="1.98"
           id="connector10pin"
           cy="2.484"
           cx="79.524002"
           sodipodi:cx="79.524002"
           sodipodi:cy="2.484"
           sodipodi:rx="1.98"
           sodipodi:ry="1.98"
           style="fill:none;stroke:#000000;stroke-width:1.44000006" />
        <circle
           d="m 88.703999,2.484 c 0,1.0935238 -0.886476,1.98 -1.98,1.98 -1.093524,0 -1.98,-0.8864762 -1.98,-1.98 0,-1.0935238 0.886476,-1.98000005 1.98,-1.98000005 1.093524,0 1.98,0.88647625 1.98,1.98000005 z"
           r="1.98"
           id="connector11pin"
           cy="2.484"
           cx="86.723999"
           sodipodi:cx="86.723999"
           sodipodi:cy="2.484"
           sodipodi:rx="1.98"
           sodipodi:ry="1.98"
           style="fill:none;stroke:#000000;stroke-width:1.44000006" />
        <circle
           d="m 95.904004,2.484 c 0,1.0935238 -0.886477,1.98 -1.98,1.98 -1.093524,0 -1.98,-0.8864762 -1.98,-1.98 0,-1.0935238 0.886476,-1.98000005 1.98,-1.98000005 1.093523,0 1.98,0.88647625 1.98,1.98000005 z"
           r="1.98"
           id="connector12pin"
           cy="2.484"
           cx="93.924004"
           sodipodi:cx="93.924004"
           sodipodi:cy="2.484"
           sodipodi:rx="1.98"
           sodipodi:ry="1.98"
           style="fill:none;stroke:#000000;stroke-width:1.44000006" />
        <circle
           d="m 103.104,2.484 c 0,1.0935238 -0.88648,1.98 -1.98,1.98 -1.09352,0 -1.979999,-0.8864762 -1.979999,-1.98 0,-1.0935238 0.886479,-1.98000005 1.979999,-1.98000005 1.09352,0 1.98,0.88647625 1.98,1.98000005 z"
           r="1.98"
           id="connector13pin"
           cy="2.484"
           cx="101.124"
           sodipodi:cx="101.124"
           sodipodi:cy="2.484"
           sodipodi:rx="1.98"
           sodipodi:ry="1.98"
           style="fill:none;stroke:#000000;stroke-width:1.44000006" />
        <circle
           d="m 110.304,2.484 c 0,1.0935238 -0.88648,1.98 -1.98,1.98 -1.09353,0 -1.98,-0.8864762 -1.98,-1.98 0,-1.0935238 0.88647,-1.98000005 1.98,-1.98000005 1.09352,0 1.98,0.88647625 1.98,1.98000005 z"
           r="1.98"
           id="connector14pin"
           cy="2.484"
           cx="108.324"
           sodipodi:cx="108.324"
           sodipodi:cy="2.484"
           sodipodi:rx="1.98"
           sodipodi:ry="1.98"
           style="fill:none;stroke:#000000;stroke-width:1.44000006" />
        <circle
           d="m 117.504,2.484 c 0,1.0935238 -0.88647,1.98 -1.98,1.98 -1.09352,0 -1.98,-0.8864762 -1.98,-1.98 0,-1.0935238 0.88648,-1.98000005 1.98,-1.98000005 1.09353,0 1.98,0.88647625 1.98,1.98000005 z"
           r="1.98"
           id="connector15pin"
           cy="2.484"
           cx="115.524"
           sodipodi:cx="115.524"
           sodipodi:cy="2.484"
           sodipodi:rx="1.98"
           sodipodi:ry="1.98"
           style="fill:none;stroke:#000000;stroke-width:1.44000006" />
        <circle
           d="m 31.104001,139.284 c 0,1.09352 -0.886477,1.98 -1.98,1.98 -1.093524,0 -1.98,-0.88648 -1.98,-1.98 0,-1.09353 0.886476,-1.98 1.98,-1.98 1.093523,0 1.98,0.88647 1.98,1.98 z"
           r="1.98"
           id="connector16pin"
           cy="139.284"
           cx="29.124001"
           sodipodi:cx="29.124001"
           sodipodi:cy="139.284"
           sodipodi:rx="1.98"
           sodipodi:ry="1.98"
           style="fill:none;stroke:#000000;stroke-width:1.44000006" />
        <circle
           d="m 38.304001,139.284 c 0,1.09352 -0.886476,1.98 -1.98,1.98 -1.093524,0 -1.98,-0.88648 -1.98,-1.98 0,-1.09353 0.886476,-1.98 1.98,-1.98 1.093524,0 1.98,0.88647 1.98,1.98 z"
           r="1.98"
           id="connector17pin"
           cy="139.284"
           cx="36.324001"
           sodipodi:cx="36.324001"
           sodipodi:cy="139.284"
           sodipodi:rx="1.98"
           sodipodi:ry="1.98"
           style="fill:none;stroke:#000000;stroke-width:1.44000006" />
        <circle
           d="m 45.503998,139.284 c 0,1.09352 -0.886476,1.98 -1.98,1.98 -1.093524,0 -1.98,-0.88648 -1.98,-1.98 0,-1.09353 0.886476,-1.98 1.98,-1.98 1.093524,0 1.98,0.88647 1.98,1.98 z"
           r="1.98"
           id="connector18pin"
           cy="139.284"
           cx="43.523998"
           sodipodi:cx="43.523998"
           sodipodi:cy="139.284"
           sodipodi:rx="1.98"
           sodipodi:ry="1.98"
           style="fill:none;stroke:#000000;stroke-width:1.44000006" />
        <circle
           d="m 52.703999,139.284 c 0,1.09352 -0.886476,1.98 -1.98,1.98 -1.093524,0 -1.98,-0.88648 -1.98,-1.98 0,-1.09353 0.886476,-1.98 1.98,-1.98 1.093524,0 1.98,0.88647 1.98,1.98 z"
           r="1.98"
           id="connector19pin"
           cy="139.284"
           cx="50.723999"
           sodipodi:cx="50.723999"
           sodipodi:cy="139.284"
           sodipodi:rx="1.98"
           sodipodi:ry="1.98"
           style="fill:none;stroke:#000000;stroke-width:1.44000006" />
        <circle
           d="m 59.904,139.284 c 0,1.09352 -0.886476,1.98 -1.98,1.98 -1.093524,0 -1.98,-0.88648 -1.98,-1.98 0,-1.09353 0.886476,-1.98 1.98,-1.98 1.093524,0 1.98,0.88647 1.98,1.98 z"
           r="1.98"
           id="connector20pin"
           cy="139.284"
           cx="57.924"
           sodipodi:cx="57.924"
           sodipodi:cy="139.284"
           sodipodi:rx="1.98"
           sodipodi:ry="1.98"
           style="fill:none;stroke:#000000;stroke-width:1.44000006" />
        <circle
           d="m 67.104001,139.284 c 0,1.09352 -0.886477,1.98 -1.98,1.98 -1.093524,0 -1.98,-0.88648 -1.98,-1.98 0,-1.09353 0.886476,-1.98 1.98,-1.98 1.093523,0 1.98,0.88647 1.98,1.98 z"
           r="1.98"
           id="connector21pin"
           cy="139.284"
           cx="65.124001"
           sodipodi:cx="65.124001"
           sodipodi:cy="139.284"
           sodipodi:rx="1.98"
           sodipodi:ry="1.98"
           style="fill:none;stroke:#000000;stroke-width:1.44000006" />
        <circle
           d="m 81.504002,139.284 c 0,1.09352 -0.886476,1.98 -1.98,1.98 -1.093524,0 -1.98,-0.88648 -1.98,-1.98 0,-1.09353 0.886476,-1.98 1.98,-1.98 1.093524,0 1.98,0.88647 1.98,1.98 z"
           r="1.98"
           id="connector22pin"
           cy="139.284"
           cx="79.524002"
           sodipodi:cx="79.524002"
           sodipodi:cy="139.284"
           sodipodi:rx="1.98"
           sodipodi:ry="1.98"
           style="fill:none;stroke:#000000;stroke-width:1.44000006" />
        <circle
           d="m 88.703999,139.284 c 0,1.09352 -0.886476,1.98 -1.98,1.98 -1.093524,0 -1.98,-0.88648 -1.98,-1.98 0,-1.09353 0.886476,-1.98 1.98,-1.98 1.093524,0 1.98,0.88647 1.98,1.98 z"
           r="1.98"
           id="connector23pin"
           cy="139.284"
           cx="86.723999"
           sodipodi:cx="86.723999"
           sodipodi:cy="139.284"
           sodipodi:rx="1.98"
           sodipodi:ry="1.98"
           style="fill:none;stroke:#000000;stroke-width:1.44000006" />
        <circle
           d="m 95.904004,139.284 c 0,1.09352 -0.886477,1.98 -1.98,1.98 -1.093524,0 -1.98,-0.88648 -1.98,-1.98 0,-1.09353 0.886476,-1.98 1.98,-1.98 1.093523,0 1.98,0.88647 1.98,1.98 z"
           r="1.98"
           id="connector24pin"
           cy="139.284"
           cx="93.924004"
           sodipodi:cx="93.924004"
           sodipodi:cy="139.284"
           sodipodi:rx="1.98"
           sodipodi:ry="1.98"
           style="fill:none;stroke:#000000;stroke-width:1.44000006" />
        <circle
           d="m 103.104,139.284 c 0,1.09352 -0.88648,1.98 -1.98,1.98 -1.09352,0 -1.979999,-0.88648 -1.979999,-1.98 0,-1.09353 0.886479,-1.98 1.979999,-1.98 1.09352,0 1.98,0.88647 1.98,1.98 z"
           r="1.98"
           id="connector25pin"
           cy="139.284"
           cx="101.124"
           sodipodi:cx="101.124"
           sodipodi:cy="139.284"
           sodipodi:rx="1.98"
           sodipodi:ry="1.98"
           style="fill:none;stroke:#000000;stroke-width:1.44000006" />
        <circle
           d="m 110.304,139.284 c 0,1.09352 -0.88648,1.98 -1.98,1.98 -1.09353,0 -1.98,-0.88648 -1.98,-1.98 0,-1.09353 0.88647,-1.98 1.98,-1.98 1.09352,0 1.98,0.88647 1.98,1.98 z"
           r="1.98"
           id="connector26pin"
           cy="139.284"
           cx="108.324"
           sodipodi:cx="108.324"
           sodipodi:cy="139.284"
           sodipodi:rx="1.98"
           sodipodi:ry="1.98"
           style="fill:none;stroke:#000000;stroke-width:1.44000006" />
        <circle
           d="m 117.504,139.284 c 0,1.09352 -0.88647,1.98 -1.98,1.98 -1.09352,0 -1.98,-0.88648 -1.98,-1.98 0,-1.09353 0.88648,-1.98 1.98,-1.98 1.09353,0 1.98,0.88647 1.98,1.98 z"
           r="1.98"
           id="connector27pin"
           cy="139.284"
           cx="115.524"
           sodipodi:cx="115.524"
           sodipodi:cy="139.284"
           sodipodi:rx="1.98"
           sodipodi:ry="1.98"
           style="fill:none;stroke:#000000;stroke-width:1.44000006" />
      </g>
    </g>
    <g
       id="g4024"
       transform="translate(82.8119,45.2384)">
      <g
         id="g4026"
         transform="matrix(0,1,-1,0,0,0)">
        <g
           id="g4028"
           style="stroke-width:0">
          <rect
             id="rect4030"
             height="3.4560001"
             y="19.584"
             x="1.872"
             width="3.4560001"
             style="fill:none;stroke:#000000;stroke-width:1.44000006" />
          <circle
             d="m 5.3279999,21.312 c 0,0.954348 -0.7736519,1.728 -1.728,1.728 -0.9543481,0 -1.728,-0.773652 -1.728,-1.728 0,-0.954348 0.7736519,-1.728 1.728,-1.728 0.9543481,0 1.728,0.773652 1.728,1.728 z"
             r="1.728"
             id="circle4032"
             cy="21.312"
             cx="3.5999999"
             sodipodi:cx="3.5999999"
             sodipodi:cy="21.312"
             sodipodi:rx="1.728"
             sodipodi:ry="1.728"
             style="fill:none;stroke:#000000;stroke-width:1.44000006" />
          <circle
             d="m 5.3279999,27 c 0,0.954348 -0.7736519,1.728 -1.728,1.728 -0.9543481,0 -1.728,-0.773652 -1.728,-1.728 0,-0.954348 0.7736519,-1.728 1.728,-1.728 0.9543481,0 1.728,0.773652 1.728,1.728 z"
             r="1.728"
             id="circle4034"
             cy="27"
             cx="3.5999999"
             sodipodi:cx="3.5999999"
             sodipodi:cy="27"
             sodipodi:rx="1.728"
             sodipodi:ry="1.728"
             style="fill:none;stroke:#000000;stroke-width:1.44000006" />
          <circle
             d="m 5.3279999,32.688 c 0,0.954348 -0.7736519,1.728 -1.728,1.728 -0.9543481,0 -1.728,-0.773652 -1.728,-1.728 0,-0.954348 0.7736519,-1.728 1.728,-1.728 0.9543481,0 1.728,0.773652 1.728,1.728 z"
             r="1.728"
             id="circle4036"
             cy="32.688"
             cx="3.5999999"
             sodipodi:cx="3.5999999"
             sodipodi:cy="32.688"
             sodipodi:rx="1.728"
             sodipodi:ry="1.728"
             style="fill:none;stroke:#000000;stroke-width:1.44000006" />
          <circle
             d="m 5.3279999,38.375999 c 0,0.954349 -0.7736519,1.728 -1.728,1.728 -0.9543481,0 -1.728,-0.773651 -1.728,-1.728 0,-0.954348 0.7736519,-1.728 1.728,-1.728 0.9543481,0 1.728,0.773652 1.728,1.728 z"
             r="1.728"
             id="circle4038"
             cy="38.375999"
             cx="3.5999999"
             sodipodi:cx="3.5999999"
             sodipodi:cy="38.375999"
             sodipodi:rx="1.728"
             sodipodi:ry="1.728"
             style="fill:none;stroke:#000000;stroke-width:1.44000006" />
          <circle
             d="m 5.3279999,44.063999 c 0,0.954348 -0.7736519,1.728 -1.728,1.728 -0.9543481,0 -1.728,-0.773652 -1.728,-1.728 0,-0.954348 0.7736519,-1.728 1.728,-1.728 0.9543481,0 1.728,0.773652 1.728,1.728 z"
             r="1.728"
             id="circle4040"
             cy="44.063999"
             cx="3.5999999"
             sodipodi:cx="3.5999999"
             sodipodi:cy="44.063999"
             sodipodi:rx="1.728"
             sodipodi:ry="1.728"
             style="fill:none;stroke:#000000;stroke-width:1.44000006" />
          <circle
             d="m 5.3279999,49.751999 c 0,0.954348 -0.7736519,1.728 -1.728,1.728 -0.9543481,0 -1.728,-0.773652 -1.728,-1.728 0,-0.954348 0.7736519,-1.728 1.728,-1.728 0.9543481,0 1.728,0.773652 1.728,1.728 z"
             r="1.728"
             id="circle4042"
             cy="49.751999"
             cx="3.5999999"
             sodipodi:cx="3.5999999"
             sodipodi:cy="49.751999"
             sodipodi:rx="1.728"
             sodipodi:ry="1.728"
             style="fill:none;stroke:#000000;stroke-width:1.44000006" />
          <circle
             d="m 5.3279999,55.439999 c 0,0.954348 -0.7736519,1.728 -1.728,1.728 -0.9543481,0 -1.728,-0.773652 -1.728,-1.728 0,-0.954348 0.7736519,-1.728 1.728,-1.728 0.9543481,0 1.728,0.773652 1.728,1.728 z"
             r="1.728"
             id="circle4044"
             cy="55.439999"
             cx="3.5999999"
             sodipodi:cx="3.5999999"
             sodipodi:cy="55.439999"
             sodipodi:rx="1.728"
             sodipodi:ry="1.728"
             style="fill:none;stroke:#000000;stroke-width:1.44000006" />
          <circle
             d="m 5.3279999,61.127998 c 0,0.954348 -0.7736519,1.728 -1.728,1.728 -0.9543481,0 -1.728,-0.773652 -1.728,-1.728 0,-0.954348 0.7736519,-1.728 1.728,-1.728 0.9543481,0 1.728,0.773652 1.728,1.728 z"
             r="1.728"
             id="circle4046"
             cy="61.127998"
             cx="3.5999999"
             sodipodi:cx="3.5999999"
             sodipodi:cy="61.127998"
             sodipodi:rx="1.728"
             sodipodi:ry="1.728"
             style="fill:none;stroke:#000000;stroke-width:1.44000006" />
          <circle
             d="m 5.3279999,66.816002 c 0,0.954348 -0.7736519,1.728 -1.728,1.728 -0.9543481,0 -1.728,-0.773652 -1.728,-1.728 0,-0.954348 0.7736519,-1.728 1.728,-1.728 0.9543481,0 1.728,0.773652 1.728,1.728 z"
             r="1.728"
             id="circle4048"
             cy="66.816002"
             cx="3.5999999"
             sodipodi:cx="3.5999999"
             sodipodi:cy="66.816002"
             sodipodi:rx="1.728"
             sodipodi:ry="1.728"
             style="fill:none;stroke:#000000;stroke-width:1.44000006" />
          <circle
             d="m 5.3279999,72.503998 c 0,0.954348 -0.7736519,1.728 -1.728,1.728 -0.9543481,0 -1.728,-0.773652 -1.728,-1.728 0,-0.954348 0.7736519,-1.728 1.728,-1.728 0.9543481,0 1.728,0.773652 1.728,1.728 z"
             r="1.728"
             id="circle4050"
             cy="72.503998"
             cx="3.5999999"
             sodipodi:cx="3.5999999"
             sodipodi:cy="72.503998"
             sodipodi:rx="1.728"
             sodipodi:ry="1.728"
             style="fill:none;stroke:#000000;stroke-width:1.44000006" />
          <circle
             d="m 67.967998,72.503998 c 0,0.954348 -0.773652,1.728 -1.728,1.728 -0.954348,0 -1.728,-0.773652 -1.728,-1.728 0,-0.954348 0.773652,-1.728 1.728,-1.728 0.954348,0 1.728,0.773652 1.728,1.728 z"
             r="1.728"
             id="circle4052"
             cy="72.503998"
             cx="66.239998"
             sodipodi:cx="66.239998"
             sodipodi:cy="72.503998"
             sodipodi:rx="1.728"
             sodipodi:ry="1.728"
             style="fill:none;stroke:#000000;stroke-width:1.44000006" />
          <circle
             d="m 67.967998,66.816002 c 0,0.954348 -0.773652,1.728 -1.728,1.728 -0.954348,0 -1.728,-0.773652 -1.728,-1.728 0,-0.954348 0.773652,-1.728 1.728,-1.728 0.954348,0 1.728,0.773652 1.728,1.728 z"
             r="1.728"
             id="circle4054"
             cy="66.816002"
             cx="66.239998"
             sodipodi:cx="66.239998"
             sodipodi:cy="66.816002"
             sodipodi:rx="1.728"
             sodipodi:ry="1.728"
             style="fill:none;stroke:#000000;stroke-width:1.44000006" />
          <circle
             d="m 67.967998,61.127998 c 0,0.954348 -0.773652,1.728 -1.728,1.728 -0.954348,0 -1.728,-0.773652 -1.728,-1.728 0,-0.954348 0.773652,-1.728 1.728,-1.728 0.954348,0 1.728,0.773652 1.728,1.728 z"
             r="1.728"
             id="circle4056"
             cy="61.127998"
             cx="66.239998"
             sodipodi:cx="66.239998"
             sodipodi:cy="61.127998"
             sodipodi:rx="1.728"
             sodipodi:ry="1.728"
             style="fill:none;stroke:#000000;stroke-width:1.44000006" />
          <circle
             d="m 67.967998,55.439999 c 0,0.954348 -0.773652,1.728 -1.728,1.728 -0.954348,0 -1.728,-0.773652 -1.728,-1.728 0,-0.954348 0.773652,-1.728 1.728,-1.728 0.954348,0 1.728,0.773652 1.728,1.728 z"
             r="1.728"
             id="circle4058"
             cy="55.439999"
             cx="66.239998"
             sodipodi:cx="66.239998"
             sodipodi:cy="55.439999"
             sodipodi:rx="1.728"
             sodipodi:ry="1.728"
             style="fill:none;stroke:#000000;stroke-width:1.44000006" />
          <circle
             d="m 67.967998,49.751999 c 0,0.954348 -0.773652,1.728 -1.728,1.728 -0.954348,0 -1.728,-0.773652 -1.728,-1.728 0,-0.954348 0.773652,-1.728 1.728,-1.728 0.954348,0 1.728,0.773652 1.728,1.728 z"
             r="1.728"
             id="circle4060"
             cy="49.751999"
             cx="66.239998"
             sodipodi:cx="66.239998"
             sodipodi:cy="49.751999"
             sodipodi:rx="1.728"
             sodipodi:ry="1.728"
             style="fill:none;stroke:#000000;stroke-width:1.44000006" />
          <circle
             d="m 67.967998,44.063999 c 0,0.954348 -0.773652,1.728 -1.728,1.728 -0.954348,0 -1.728,-0.773652 -1.728,-1.728 0,-0.954348 0.773652,-1.728 1.728,-1.728 0.954348,0 1.728,0.773652 1.728,1.728 z"
             r="1.728"
             id="circle4062"
             cy="44.063999"
             cx="66.239998"
             sodipodi:cx="66.239998"
             sodipodi:cy="44.063999"
             sodipodi:rx="1.728"
             sodipodi:ry="1.728"
             style="fill:none;stroke:#000000;stroke-width:1.44000006" />
          <circle
             d="m 67.967998,38.375999 c 0,0.954349 -0.773652,1.728 -1.728,1.728 -0.954348,0 -1.728,-0.773651 -1.728,-1.728 0,-0.954348 0.773652,-1.728 1.728,-1.728 0.954348,0 1.728,0.773652 1.728,1.728 z"
             r="1.728"
             id="circle4064"
             cy="38.375999"
             cx="66.239998"
             sodipodi:cx="66.239998"
             sodipodi:cy="38.375999"
             sodipodi:rx="1.728"
             sodipodi:ry="1.728"
             style="fill:none;stroke:#000000;stroke-width:1.44000006" />
          <circle
             d="m 67.967998,32.688 c 0,0.954348 -0.773652,1.728 -1.728,1.728 -0.954348,0 -1.728,-0.773652 -1.728,-1.728 0,-0.954348 0.773652,-1.728 1.728,-1.728 0.954348,0 1.728,0.773652 1.728,1.728 z"
             r="1.728"
             id="circle4066"
             cy="32.688"
             cx="66.239998"
             sodipodi:cx="66.239998"
             sodipodi:cy="32.688"
             sodipodi:rx="1.728"
             sodipodi:ry="1.728"
             style="fill:none;stroke:#000000;stroke-width:1.44000006" />
          <circle
             d="m 67.967998,27 c 0,0.954348 -0.773652,1.728 -1.728,1.728 -0.954348,0 -1.728,-0.773652 -1.728,-1.728 0,-0.954348 0.773652,-1.728 1.728,-1.728 0.954348,0 1.728,0.773652 1.728,1.728 z"
             r="1.728"
             id="circle4068"
             cy="27"
             cx="66.239998"
             sodipodi:cx="66.239998"
             sodipodi:cy="27"
             sodipodi:rx="1.728"
             sodipodi:ry="1.728"
             style="fill:none;stroke:#000000;stroke-width:1.44000006" />
          <circle
             d="m 67.967998,21.312 c 0,0.954348 -0.773652,1.728 -1.728,1.728 -0.954348,0 -1.728,-0.773652 -1.728,-1.728 0,-0.954348 0.773652,-1.728 1.728,-1.728 0.954348,0 1.728,0.773652 1.728,1.728 z"
             r="1.728"
             id="circle4070"
             cy="21.312"
             cx="66.239998"
             sodipodi:cx="66.239998"
             sodipodi:cy="21.312"
             sodipodi:rx="1.728"
             sodipodi:ry="1.728"
             style="fill:none;stroke:#000000;stroke-width:1.44000006" />
        </g>
      </g>
    </g>
    <g
       id="g4072"
       transform="translate(86.88,13.9997)">
      <g
         id="g4074"
         transform="matrix(0,1,-1,0,0,0)">
        <g
           id="g4076"
           style="stroke-width:0">
          <rect
             id="rect4078"
             height="3.96"
             y="3.0599999"
             x="3.0599999"
             width="3.96"
             style="fill:none;stroke:#000000;stroke-width:1.44000006" />
          <circle
             d="m 7.02,5.04 c 0,1.0935238 -0.8864762,1.98 -1.98,1.98 -1.0935239,0 -1.9800001,-0.8864762 -1.9800001,-1.98 0,-1.0935239 0.8864762,-1.9800001 1.9800001,-1.9800001 1.0935238,0 1.98,0.8864762 1.98,1.9800001 z"
             r="1.98"
             id="circle4080"
             cy="5.04"
             cx="5.04"
             sodipodi:cx="5.04"
             sodipodi:cy="5.04"
             sodipodi:rx="1.98"
             sodipodi:ry="1.98"
             style="fill:none;stroke:#000000;stroke-width:1.44000006" />
          <circle
             d="m 7.02,12.24 c 0,1.093524 -0.8864762,1.98 -1.98,1.98 -1.0935239,0 -1.9800001,-0.886476 -1.9800001,-1.98 0,-1.093524 0.8864762,-1.98 1.9800001,-1.98 1.0935238,0 1.98,0.886476 1.98,1.98 z"
             r="1.98"
             id="circle4082"
             cy="12.24"
             cx="5.04"
             sodipodi:cx="5.04"
             sodipodi:cy="12.24"
             sodipodi:rx="1.98"
             sodipodi:ry="1.98"
             style="fill:none;stroke:#000000;stroke-width:1.44000006" />
        </g>
      </g>
    </g>
    <g
       id="g4084"
       transform="translate(86.9066,22.1597)">
      <g
         id="g4086"
         transform="matrix(0,1,-1,0,0,0)">
        <g
           id="g4088"
           style="stroke-width:0">
          <rect
             id="rect4090"
             height="3.96"
             y="3.0599999"
             x="3.0599999"
             width="3.96"
             style="fill:none;stroke:#000000;stroke-width:1.44000006" />
          <circle
             d="m 7.02,5.04 c 0,1.0935238 -0.8864762,1.98 -1.98,1.98 -1.0935239,0 -1.9800001,-0.8864762 -1.9800001,-1.98 0,-1.0935239 0.8864762,-1.9800001 1.9800001,-1.9800001 1.0935238,0 1.98,0.8864762 1.98,1.9800001 z"
             r="1.98"
             id="circle4092"
             cy="5.04"
             cx="5.04"
             sodipodi:cx="5.04"
             sodipodi:cy="5.04"
             sodipodi:rx="1.98"
             sodipodi:ry="1.98"
             style="fill:none;stroke:#000000;stroke-width:1.44000006" />
          <circle
             d="m 7.02,12.24 c 0,1.093524 -0.8864762,1.98 -1.98,1.98 -1.0935239,0 -1.9800001,-0.886476 -1.9800001,-1.98 0,-1.093524 0.8864762,-1.98 1.9800001,-1.98 1.0935238,0 1.98,0.886476 1.98,1.98 z"
             r="1.98"
             id="circle4094"
             cy="12.24"
             cx="5.04"
             sodipodi:cx="5.04"
             sodipodi:cy="12.24"
             sodipodi:rx="1.98"
             sodipodi:ry="1.98"
             style="fill:none;stroke:#000000;stroke-width:1.44000006" />
        </g>
      </g>
    </g>
    <line
       id="line4096"
       x2="15.5506"
       y2="32.266399"
       x1="10.3079"
       y1="32.266399"
       style="stroke:#000000;stroke-width:1.72800004;stroke-linecap:round" />
    <line
       id="line4098"
       x2="15.5506"
       y2="10.244"
       x1="15.5506"
       y1="32.266399"
       style="stroke:#000000;stroke-width:1.72800004;stroke-linecap:round" />
    <line
       id="line4100"
       x2="10.3079"
       y2="32.266399"
       x1="10.3079"
       y1="46.080002"
       style="stroke:#000000;stroke-width:1.72800004;stroke-linecap:round" />
    <line
       id="line4102"
       x2="42.190601"
       y2="141.12399"
       x1="42.190601"
       y1="133.06599"
       style="stroke:#000000;stroke-width:1.72800004;stroke-linecap:round" />
    <line
       id="line4104"
       x2="42.190601"
       y2="133.06599"
       x1="73.8666"
       y1="133.06599"
       style="stroke:#000000;stroke-width:1.72800004;stroke-linecap:round" />
    <line
       id="line4106"
       x2="73.8666"
       y2="133.06599"
       x1="73.8666"
       y1="48.838402"
       style="stroke:#000000;stroke-width:1.72800004;stroke-linecap:round" />
    <line
       id="line4108"
       x2="73.8666"
       y2="48.838402"
       x1="64.258301"
       y1="48.838402"
       style="stroke:#000000;stroke-width:1.72800004;stroke-linecap:round" />
    <line
       id="line4110"
       x2="50.123901"
       y2="19.0397"
       x1="71.68"
       y1="19.0397"
       style="stroke:#000000;stroke-width:1.72800004;stroke-linecap:round" />
    <line
       id="line4112"
       x2="50.123901"
       y2="46.080002"
       x1="50.123901"
       y1="19.0397"
       style="stroke:#000000;stroke-width:1.72800004;stroke-linecap:round" />
    <line
       id="line4114"
       x2="55.811901"
       y2="46.080002"
       x1="55.811901"
       y1="27.199699"
       style="stroke:#000000;stroke-width:1.72800004;stroke-linecap:round" />
    <line
       id="line4116"
       x2="55.811901"
       y2="27.199699"
       x1="71.706596"
       y1="27.199699"
       style="stroke:#000000;stroke-width:1.72800004;stroke-linecap:round" />
    <line
       id="line4118"
       x2="114.191"
       y2="10.244"
       x1="114.191"
       y1="19.0397"
       style="stroke:#000000;stroke-width:1.72800004;stroke-linecap:round" />
    <line
       id="line4120"
       x2="114.191"
       y2="19.0397"
       x1="84.800003"
       y1="19.0397"
       style="stroke:#000000;stroke-width:1.72800004;stroke-linecap:round" />
    <line
       id="line4122"
       x2="121.391"
       y2="10.244"
       x1="121.391"
       y1="27.199699"
       style="stroke:#000000;stroke-width:1.72800004;stroke-linecap:round" />
    <line
       id="line4124"
       x2="121.391"
       y2="27.199699"
       x1="84.826599"
       y1="27.199699"
       style="stroke:#000000;stroke-width:1.72800004;stroke-linecap:round" />
  </g>
  <use
     x="0"
     y="0"
     xlink:href="#g4132"
     id="use4356"
     transform="translate(1.080493,-135.06163)"
     width="612.0011"
     height="792.00043" />
</svg>
