<?xml version='1.0' encoding='UTF-8' standalone='no'?>
<!-- Created with Fritzing (http://www.fritzing.org/) -->
<svg width="1.11111in" x="0in" version="1.2" y="0in" xmlns="http://www.w3.org/2000/svg" height="1.17778in" viewBox="0 0 80 84.8" baseProfile="tiny" xmlns:svg="http://www.w3.org/2000/svg">
 <g  id="silkscreen" stroke-width="0">
  <line  stroke="black" y1="0.288" x1="0.288" y2="0.288" stroke-width="0.576" x2="80.2239"/>
  <line  stroke="black" y1="0.288" x1="80.2239" y2="84.2241" stroke-width="0.576" x2="80.2239"/>
  <line  stroke="black" y1="84.2241" x1="80.2239" y2="84.2241" stroke-width="0.576" x2="0.288"/>
  <line  stroke="black" y1="84.2241" x1="0.288" y2="0.288" stroke-width="0.576" x2="0.288"/>
 </g>
 <g  id="groundplane" stroke-width="0">
  <polygon fill="black" points="0,0,0,4.68,28.44,4.68,28.44,5.4,65.16,5.4,65.16,11.16,65.52,11.16,65.52,11.52,65.88,11.52,65.88,11.88,66.24,11.88,66.24,12.24,66.6,12.24,66.6,12.6,66.96,12.6,66.96,12.96,67.32,12.96,67.32,13.32,67.68,13.32,67.68,13.68,68.04,13.68,68.04,14.4,68.4,14.4,68.4,14.76,68.76,14.76,68.76,15.12,69.12,15.12,69.12,15.48,69.48,15.48,69.48,15.84,69.84,15.84,69.84,16.2,70.2,16.2,70.2,16.56,70.56,16.56,70.56,16.92,70.92,16.92,70.92,17.28,72,17.28,72,17.64,73.08,17.64,73.08,18,73.44,18,73.44,18.36,74.16,18.36,74.16,18.72,74.52,18.72,74.52,19.08,74.88,19.08,74.88,19.8,75.24,19.8,75.24,20.52,75.6,20.52,75.6,23.76,75.24,23.76,75.24,24.48,74.88,24.48,74.88,25.56,75.24,25.56,75.24,25.92,75.6,25.92,75.6,29.52,75.24,29.52,75.24,30.24,74.88,30.24,74.88,30.96,75.24,30.96,75.24,31.68,75.6,31.68,75.6,35.28,75.24,35.28,75.24,36,74.88,36,74.88,36.72,75.24,36.72,75.24,37.44,75.6,37.44,75.6,41.04,75.24,41.04,75.24,41.4,74.88,41.4,74.88,42.48,75.24,42.48,75.24,43.2,75.6,43.2,75.6,46.44,75.24,46.44,75.24,47.16,74.88,47.16,74.88,48.24,75.24,48.24,75.24,48.96,75.6,48.96,75.6,52.2,75.24,52.2,75.24,52.92,74.88,52.92,74.88,54,75.24,54,75.24,54.36,75.6,54.36,75.6,57.96,75.24,57.96,75.24,58.68,74.88,58.68,74.88,59.4,75.24,59.4,75.24,60.12,75.6,60.12,75.6,63.72,75.24,63.72,75.24,64.44,74.88,64.44,74.88,65.16,75.24,65.16,75.24,65.88,75.6,65.88,75.6,69.48,75.24,69.48,75.24,69.84,74.88,69.84,74.88,70.92,75.24,70.92,75.24,71.64,75.6,71.64,75.6,74.88,75.24,74.88,75.24,75.6,74.88,75.6,74.88,76.32,74.52,76.32,74.52,76.68,74.16,76.68,74.16,77.04,73.44,77.04,73.44,77.4,73.08,77.4,73.08,77.76,72,77.76,72,78.12,79.92,78.12,79.92,0"  stroke="none" stroke-width="0"/>
  <polygon fill="black" points="0,4.68,0,78.12,7.56,78.12,7.56,77.76,6.48,77.76,6.48,77.4,5.76,77.4,5.76,77.04,5.4,77.04,5.4,76.68,5.04,76.68,5.04,76.32,4.68,76.32,4.68,75.96,4.32,75.96,4.32,75.24,3.96,75.24,3.96,74.52,3.6,74.52,3.6,72.36,3.96,72.36,3.96,71.28,4.32,71.28,4.32,70.56,4.68,70.56,4.68,70.2,4.32,70.2,4.32,69.48,3.96,69.48,3.96,68.76,3.6,68.76,3.6,66.6,3.96,66.6,3.96,65.52,4.32,65.52,4.32,65.16,4.68,65.16,4.68,64.44,4.32,64.44,4.32,64.08,3.96,64.08,3.96,63,3.6,63,3.6,60.84,3.96,60.84,3.96,60.12,4.32,60.12,4.32,59.4,4.68,59.4,4.68,58.68,4.32,58.68,4.32,58.32,3.96,58.32,3.96,57.24,3.6,57.24,3.6,55.08,3.96,55.08,3.96,54.36,4.32,54.36,4.32,53.64,4.68,53.64,4.68,53.28,4.32,53.28,4.32,52.56,3.96,52.56,3.96,51.48,3.6,51.48,3.6,49.32,3.96,49.32,3.96,48.6,4.32,48.6,4.32,47.88,4.68,47.88,4.68,47.52,4.32,47.52,4.32,46.8,3.96,46.8,3.96,46.08,3.6,46.08,3.6,43.92,3.96,43.92,3.96,42.84,4.32,42.84,4.32,42.12,4.68,42.12,4.68,41.76,4.32,41.76,4.32,41.04,3.96,41.04,3.96,40.32,3.6,40.32,3.6,38.16,3.96,38.16,3.96,37.08,4.32,37.08,4.32,36.72,4.68,36.72,4.68,36,4.32,36,4.32,35.28,3.96,35.28,3.96,34.56,3.6,34.56,3.6,32.4,3.96,32.4,3.96,31.68,4.32,31.68,4.32,30.96,4.68,30.96,4.68,30.24,4.32,30.24,4.32,29.88,3.96,29.88,3.96,28.8,3.6,28.8,3.6,17.64,3.96,17.64,3.96,17.28,9.36,17.28,9.36,16.92,9.72,16.92,9.72,16.56,10.08,16.56,10.08,16.2,10.8,16.2,10.8,15.84,11.16,15.84,11.16,15.48,11.52,15.48,11.52,15.12,11.88,15.12,11.88,14.76,12.6,14.76,12.6,14.4,12.96,14.4,12.96,14.04,13.32,14.04,13.32,13.68,13.68,13.68,13.68,13.32,14.04,13.32,14.04,12.96,14.76,12.96,14.76,12.6,15.12,12.6,15.12,12.24,15.48,12.24,15.48,11.88,15.84,11.88,15.84,11.52,16.56,11.52,16.56,11.16,16.92,11.16,16.92,10.8,17.28,10.8,17.28,10.44,17.64,10.44,17.64,10.08,18,10.08,18,9.72,18.36,9.72,18.36,5.04,18.72,5.04,18.72,4.68"  stroke="none" stroke-width="0"/>
  <polygon fill="black" points="28.44,5.4,28.44,14.76,28.08,14.76,28.08,15.48,28.44,15.48,28.44,18.36,28.08,18.36,28.08,19.08,27.72,19.08,27.72,19.8,27.36,19.8,27.36,20.16,27,20.16,27,20.88,27.36,20.88,27.36,21.24,27.72,21.24,27.72,21.96,28.08,21.96,28.08,22.68,28.44,22.68,28.44,25.56,28.08,25.56,28.08,26.28,27.72,26.28,27.72,27,27.36,27,27.36,27.36,27,27.36,27,28.08,27.36,28.08,27.36,28.44,27.72,28.44,27.72,29.16,28.08,29.16,28.08,29.88,28.44,29.88,28.44,32.76,28.08,32.76,28.08,33.48,27.72,33.48,27.72,34.2,27.36,34.2,27.36,34.56,27,34.56,27,35.28,27.36,35.28,27.36,35.64,27.72,35.64,27.72,36.36,28.08,36.36,28.08,37.08,28.44,37.08,28.44,39.96,28.08,39.96,28.08,40.68,27.72,40.68,27.72,41.4,27.36,41.4,27.36,41.76,27,41.76,27,42.48,27.36,42.48,27.36,42.84,27.72,42.84,27.72,43.56,28.08,43.56,28.08,44.28,28.44,44.28,28.44,47.16,28.08,47.16,28.08,47.88,27.72,47.88,27.72,48.6,27.36,48.6,27.36,48.96,27,48.96,27,49.68,27.36,49.68,27.36,50.04,27.72,50.04,27.72,50.76,28.08,50.76,28.08,51.48,28.44,51.48,28.44,54.36,28.08,54.36,28.08,55.08,27.72,55.08,27.72,55.8,27.36,55.8,27.36,56.16,27,56.16,27,56.88,27.36,56.88,27.36,57.24,27.72,57.24,27.72,57.96,28.08,57.96,28.08,58.68,28.44,58.68,28.44,61.56,28.08,61.56,28.08,62.28,27.72,62.28,27.72,63,27.36,63,27.36,63.36,27,63.36,27,64.08,27.36,64.08,27.36,64.44,27.72,64.44,27.72,65.16,28.08,65.16,28.08,65.88,28.44,65.88,28.44,68.76,28.08,68.76,28.08,69.48,27.72,69.48,27.72,70.2,27.36,70.2,27.36,70.56,27,70.56,27,71.28,27.36,71.28,27.36,71.64,27.72,71.64,27.72,72.36,28.08,72.36,28.08,73.08,28.44,73.08,28.44,75.96,28.08,75.96,28.08,76.68,27.72,76.68,27.72,77.4,27.36,77.4,27.36,77.76,27,77.76,27,78.12,26.64,78.12,26.64,78.48,26.28,78.48,26.28,78.84,25.56,78.84,25.56,79.2,24.48,79.2,24.48,79.56,57.6,79.56,57.6,79.2,57.24,79.2,57.24,78.84,56.88,78.84,56.88,78.48,56.52,78.48,56.52,78.12,56.16,78.12,56.16,77.76,55.8,77.76,55.8,77.04,55.44,77.04,55.44,75.6,55.08,75.6,55.08,74.88,55.44,74.88,55.44,73.44,55.8,73.44,55.8,72.72,56.16,72.72,56.16,72.36,56.52,72.36,56.52,71.64,56.88,71.64,56.88,71.28,56.52,71.28,56.52,70.92,56.16,70.92,56.16,70.56,55.8,70.56,55.8,69.84,55.44,69.84,55.44,68.4,55.08,68.4,55.08,67.68,55.44,67.68,55.44,66.24,55.8,66.24,55.8,65.52,56.16,65.52,56.16,65.16,56.52,65.16,56.52,64.44,56.88,64.44,56.88,64.08,56.52,64.08,56.52,63.72,56.16,63.72,56.16,63.36,55.8,63.36,55.8,62.64,55.44,62.64,55.44,61.2,55.08,61.2,55.08,60.48,55.44,60.48,55.44,59.04,55.8,59.04,55.8,58.32,56.16,58.32,56.16,57.96,56.52,57.96,56.52,57.24,56.88,57.24,56.88,56.88,56.52,56.88,56.52,56.52,56.16,56.52,56.16,56.16,55.8,56.16,55.8,55.44,55.44,55.44,55.44,54,55.08,54,55.08,53.28,55.44,53.28,55.44,51.84,55.8,51.84,55.8,51.12,56.16,51.12,56.16,50.76,56.52,50.76,56.52,50.04,56.88,50.04,56.88,49.68,56.52,49.68,56.52,49.32,56.16,49.32,56.16,48.96,55.8,48.96,55.8,48.24,55.44,48.24,55.44,46.8,55.08,46.8,55.08,46.08,55.44,46.08,55.44,44.64,55.8,44.64,55.8,43.92,56.16,43.92,56.16,43.56,56.52,43.56,56.52,42.84,56.88,42.84,56.88,42.48,56.52,42.48,56.52,42.12,56.16,42.12,56.16,41.76,55.8,41.76,55.8,41.04,55.44,41.04,55.44,39.6,55.08,39.6,55.08,38.88,55.44,38.88,55.44,37.44,55.8,37.44,55.8,36.72,56.16,36.72,56.16,36.36,56.52,36.36,56.52,35.64,56.88,35.64,56.88,35.28,56.52,35.28,56.52,34.92,56.16,34.92,56.16,34.56,55.8,34.56,55.8,33.84,55.44,33.84,55.44,32.4,55.08,32.4,55.08,31.68,55.44,31.68,55.44,30.24,55.8,30.24,55.8,29.52,56.16,29.52,56.16,29.16,56.52,29.16,56.52,28.44,56.88,28.44,56.88,28.08,56.52,28.08,56.52,27.72,56.16,27.72,56.16,27.36,55.8,27.36,55.8,26.64,55.44,26.64,55.44,25.2,55.08,25.2,55.08,24.48,55.44,24.48,55.44,23.04,55.8,23.04,55.8,22.32,56.16,22.32,56.16,21.96,56.52,21.96,56.52,21.24,56.88,21.24,56.88,20.88,56.52,20.88,56.52,20.52,56.16,20.52,56.16,20.16,55.8,20.16,55.8,19.44,55.44,19.44,55.44,18,55.08,18,55.08,17.28,55.44,17.28,55.44,15.84,55.8,15.84,55.8,15.48,55.44,15.48,55.44,14.76,55.08,14.76,55.08,5.76,55.44,5.76,55.44,5.4"  stroke="none" stroke-width="0"/>
  <polygon fill="black" points="10.8,77.04,10.8,77.4,10.44,77.4,10.44,77.76,9.36,77.76,9.36,78.12,19.8,78.12,19.8,77.76,19.44,77.76,19.44,77.4,17.28,77.4,17.28,77.04"  stroke="none" stroke-width="0"/>
  <polygon fill="black" points="65.16,77.4,65.16,77.76,64.44,77.76,64.44,78.12,70.2,78.12,70.2,77.76,69.12,77.76,69.12,77.4"  stroke="none" stroke-width="0"/>
  <polygon fill="black" points="0,78.12,0,78.48,20.16,78.48,20.16,78.12"  stroke="none" stroke-width="0"/>
  <polygon fill="black" points="0,78.12,0,78.48,20.16,78.48,20.16,78.12"  stroke="none" stroke-width="0"/>
  <polygon fill="black" points="64.08,78.12,64.08,78.48,79.92,78.48,79.92,78.12"  stroke="none" stroke-width="0"/>
  <polygon fill="black" points="64.08,78.12,64.08,78.48,79.92,78.48,79.92,78.12"  stroke="none" stroke-width="0"/>
  <polygon fill="black" points="0,78.48,0,79.56,22.32,79.56,22.32,79.2,21.24,79.2,21.24,78.84,20.88,78.84,20.88,78.48"  stroke="none" stroke-width="0"/>
  <polygon fill="black" points="63.72,78.48,63.72,78.84,63.36,78.84,63.36,79.2,62.64,79.2,62.64,79.56,62.28,79.56,62.28,79.92,61.2,79.92,61.2,80.28,79.92,80.28,79.92,78.48"  stroke="none" stroke-width="0"/>
  <polygon fill="black" points="0,79.56,0,79.92,58.32,79.92,58.32,79.56"  stroke="none" stroke-width="0"/>
  <polygon fill="black" points="0,79.56,0,79.92,58.32,79.92,58.32,79.56"  stroke="none" stroke-width="0"/>
  <polygon fill="black" points="0,79.92,0,80.28,59.4,80.28,59.4,79.92"  stroke="none" stroke-width="0"/>
  <polygon fill="black" points="0,80.28,0,80.64,79.92,80.64,79.92,80.28"  stroke="none" stroke-width="0"/>
  <polygon fill="black" points="0,80.28,0,80.64,79.92,80.64,79.92,80.28"  stroke="none" stroke-width="0"/>
  <polygon fill="black" points="0,80.64,0,84.6,79.92,84.6,79.92,80.64"  stroke="none" stroke-width="0"/>
  <g  id="connector0pad" stroke-width="0">
   <circle fill="black" cx="69.2928"  cy="5.83852" stroke="none" r="2.7" stroke-width="0"/>
  </g>
 </g>
 <g transform="translate(4.8,0.2664)">
  <g  id="copper0" stroke-width="0">
   <rect width="3.456" x="1.872" y="19.584" fill="none"  height="3.456" stroke="black" stroke-width="1.44"/>
   <circle fill="none" cx="3.6"  cy="21.312" stroke="black" id="connector0pin" r="1.728" stroke-width="1.44"/>
   <circle fill="none" cx="3.6"  cy="27" stroke="black" id="connector1pin" r="1.728" stroke-width="1.44"/>
   <circle fill="none" cx="3.6"  cy="32.688" stroke="black" id="connector2pin" r="1.728" stroke-width="1.44"/>
   <circle fill="none" cx="3.6"  cy="38.376" stroke="black" id="connector3pin" r="1.728" stroke-width="1.44"/>
   <circle fill="none" cx="3.6"  cy="44.064" stroke="black" id="connector4pin" r="1.728" stroke-width="1.44"/>
   <circle fill="none" cx="3.6"  cy="49.752" stroke="black" id="connector5pin" r="1.728" stroke-width="1.44"/>
   <circle fill="none" cx="3.6"  cy="55.44" stroke="black" id="connector6pin" r="1.728" stroke-width="1.44"/>
   <circle fill="none" cx="3.6"  cy="61.128" stroke="black" id="connector7pin" r="1.728" stroke-width="1.44"/>
   <circle fill="none" cx="3.6"  cy="66.816" stroke="black" id="connector8pin" r="1.728" stroke-width="1.44"/>
   <circle fill="none" cx="3.6"  cy="72.504" stroke="black" id="connector9pin" r="1.728" stroke-width="1.44"/>
   <circle fill="none" cx="66.24"  cy="72.504" stroke="black" id="connector10pin" r="1.728" stroke-width="1.44"/>
   <circle fill="none" cx="66.24"  cy="66.816" stroke="black" id="connector11pin" r="1.728" stroke-width="1.44"/>
   <circle fill="none" cx="66.24"  cy="61.128" stroke="black" id="connector12pin" r="1.728" stroke-width="1.44"/>
   <circle fill="none" cx="66.24"  cy="55.44" stroke="black" id="connector13pin" r="1.728" stroke-width="1.44"/>
   <circle fill="none" cx="66.24"  cy="49.752" stroke="black" id="connector14pin" r="1.728" stroke-width="1.44"/>
   <circle fill="none" cx="66.24"  cy="44.064" stroke="black" id="connector15pin" r="1.728" stroke-width="1.44"/>
   <circle fill="none" cx="66.24"  cy="38.376" stroke="black" id="connector16pin" r="1.728" stroke-width="1.44"/>
   <circle fill="none" cx="66.24"  cy="32.688" stroke="black" id="connector17pin" r="1.728" stroke-width="1.44"/>
   <circle fill="none" cx="66.24"  cy="27" stroke="black" id="connector18pin" r="1.728" stroke-width="1.44"/>
   <circle fill="none" cx="66.24"  cy="21.312" stroke="black" id="connector19pin" r="1.728" stroke-width="1.44"/>
  </g>
 </g>
 <g transform="translate(55.2,5.3336)">
  <g  id="copper0" stroke-width="0">
   <rect width="3.96" x="3.06" y="3.06" fill="none"  height="3.96" stroke="black" stroke-width="1.44"/>
   <circle fill="none" cx="5.04"  cy="5.04" stroke="black" id="connector0pin" r="1.98" stroke-width="1.44"/>
   <circle fill="none" cx="5.04"  cy="12.24" stroke="black" id="connector1pin" r="1.98" stroke-width="1.44"/>
   <circle fill="none" cx="5.04"  cy="19.44" stroke="black" id="connector2pin" r="1.98" stroke-width="1.44"/>
   <circle fill="none" cx="5.04"  cy="26.64" stroke="black" id="connector3pin" r="1.98" stroke-width="1.44"/>
   <circle fill="none" cx="5.04"  cy="33.84" stroke="black" id="connector4pin" r="1.98" stroke-width="1.44"/>
   <circle fill="none" cx="5.04"  cy="41.04" stroke="black" id="connector5pin" r="1.98" stroke-width="1.44"/>
   <circle fill="none" cx="5.04"  cy="48.24" stroke="black" id="connector6pin" r="1.98" stroke-width="1.44"/>
   <circle fill="none" cx="5.04"  cy="55.44" stroke="black" id="connector7pin" r="1.98" stroke-width="1.44"/>
   <circle fill="none" cx="5.04"  cy="62.64" stroke="black" id="connector8pin" r="1.98" stroke-width="1.44"/>
   <circle fill="none" cx="5.04"  cy="69.84" stroke="black" id="connector9pin" r="1.98" stroke-width="1.44"/>
  </g>
 </g>
 <g transform="translate(18.4266,4.6936)">
  <g  id="copper0" stroke-width="0">
   <rect width="3.96" x="3.06" y="3.06" fill="none"  height="3.96" stroke="black" stroke-width="1.44"/>
   <circle fill="none" cx="5.04"  cy="5.04" stroke="black" id="connector0pin" r="1.98" stroke-width="1.44"/>
   <circle fill="none" cx="5.04"  cy="12.24" stroke="black" id="connector1pin" r="1.98" stroke-width="1.44"/>
   <circle fill="none" cx="5.04"  cy="19.44" stroke="black" id="connector2pin" r="1.98" stroke-width="1.44"/>
   <circle fill="none" cx="5.04"  cy="26.64" stroke="black" id="connector3pin" r="1.98" stroke-width="1.44"/>
   <circle fill="none" cx="5.04"  cy="33.84" stroke="black" id="connector4pin" r="1.98" stroke-width="1.44"/>
   <circle fill="none" cx="5.04"  cy="41.04" stroke="black" id="connector5pin" r="1.98" stroke-width="1.44"/>
   <circle fill="none" cx="5.04"  cy="48.24" stroke="black" id="connector6pin" r="1.98" stroke-width="1.44"/>
   <circle fill="none" cx="5.04"  cy="55.44" stroke="black" id="connector7pin" r="1.98" stroke-width="1.44"/>
   <circle fill="none" cx="5.04"  cy="62.64" stroke="black" id="connector8pin" r="1.98" stroke-width="1.44"/>
   <circle fill="none" cx="5.04"  cy="69.84" stroke="black" id="connector9pin" r="1.98" stroke-width="1.44"/>
  </g>
 </g>
 <line stroke="black" stroke-linecap="round" y1="11.563" x1="21.1397" y2="19.8741" stroke-width="1.728" x2="10.5685"/>
 <line stroke="black" stroke-linecap="round" y1="18.6078" x1="21.0256" y2="25.7068" stroke-width="1.728" x2="10.6748"/>
 <line stroke="black" stroke-linecap="round" y1="25.6292" x1="20.9123" y2="31.5613" stroke-width="1.728" x2="10.7804"/>
 <line stroke="black" stroke-linecap="round" y1="32.6256" x1="20.8035" y2="37.4389" stroke-width="1.728" x2="10.8818"/>
 <line stroke="black" stroke-linecap="round" y1="39.5966" x1="20.7041" y2="43.3404" stroke-width="1.728" x2="10.9744"/>
 <line stroke="black" stroke-linecap="round" y1="46.5434" x1="20.6196" y2="49.2643" stroke-width="1.728" x2="11.0532"/>
 <line stroke="black" stroke-linecap="round" y1="53.4694" x1="20.5555" y2="55.2076" stroke-width="1.728" x2="11.1128"/>
 <line stroke="black" stroke-linecap="round" y1="60.3805" x1="20.517" y2="61.1648" stroke-width="1.728" x2="11.1488"/>
 <line stroke="black" stroke-linecap="round" y1="67.2844" x1="20.507" y2="67.1288" stroke-width="1.728" x2="11.158"/>
 <line stroke="black" stroke-linecap="round" y1="74.1897" x1="20.5267" y2="73.0915" stroke-width="1.728" x2="11.1397"/>
 <line stroke="black" stroke-linecap="round" y1="12.5048" x1="62.2941" y2="19.5929" stroke-width="1.728" x2="69.1258"/>
 <line stroke="black" stroke-linecap="round" y1="19.5507" x1="62.4429" y2="25.4245" stroke-width="1.728" x2="68.9872"/>
 <line stroke="black" stroke-linecap="round" y1="26.561" x1="62.5994" y2="31.2893" stroke-width="1.728" x2="68.8413"/>
 <line stroke="black" stroke-linecap="round" y1="33.5288" x1="62.7585" y2="37.1936" stroke-width="1.728" x2="68.693"/>
 <line stroke="black" stroke-linecap="round" y1="40.4491" x1="62.9111" y2="43.1423" stroke-width="1.728" x2="68.5508"/>
 <line stroke="black" stroke-linecap="round" y1="47.3202" x1="63.0446" y2="49.1368" stroke-width="1.728" x2="68.4265"/>
 <line stroke="black" stroke-linecap="round" y1="54.1472" x1="63.1439" y2="55.1724" stroke-width="1.728" x2="68.3339"/>
 <line stroke="black" stroke-linecap="round" y1="60.9436" x1="63.1951" y2="61.2365" stroke-width="1.728" x2="68.2862"/>
 <line stroke="black" stroke-linecap="round" y1="67.7303" x1="63.19" y2="67.3096" stroke-width="1.728" x2="68.2909"/>
 <line stroke="black" stroke-linecap="round" y1="74.5308" x1="63.1294" y2="73.3699" stroke-width="1.728" x2="68.3474"/>
</svg>
